<svg width="64" height="58" viewBox="0 0 64 58" fill="none" xmlns="http://www.w3.org/2000/svg">
<g clip-path="url(#clip0_212_26720)">
<path d="M31.8116 0.542317C37.9087 0.542317 44.0034 0.559634 50.1005 0.522526C51.0347 0.522526 51.5982 0.839181 52.1172 1.6036C55.6563 6.81353 59.2259 12.0028 62.826 17.1715C63.5106 18.1611 63.4908 18.829 62.7296 19.7691C52.9459 31.8761 43.1812 44.0021 33.4354 56.1471C33.2797 56.34 33.124 56.5305 32.9609 56.7161C32.0365 57.7749 31.5793 57.8021 30.697 56.7161C28.4554 53.975 26.2484 51.2093 24.0241 48.4484C16.3296 38.8829 8.63099 29.3239 0.928268 19.7716C0.18683 18.8439 0.115162 18.166 0.809643 17.174C4.41633 12.0136 7.98347 6.82755 11.5111 1.61597C12.0671 0.794649 12.6875 0.517578 13.6464 0.522526C19.7015 0.559634 25.7566 0.542317 31.8116 0.542317ZM31.6708 52.3522H31.9674C35.2923 41.4672 38.6213 30.5576 41.9545 19.6231H21.6885C25.0349 30.6145 28.3541 41.4821 31.6708 52.3522ZM28.8706 51.1004L29.0387 51.0163C28.9917 50.8654 28.9472 50.712 28.9027 50.5611C25.8381 40.5123 22.7809 30.4602 19.7311 20.4049C19.484 19.6256 19.0663 19.5291 18.3867 19.5316C13.7774 19.5489 9.16812 19.5316 4.54649 19.544C4.27957 19.544 4.01511 19.586 3.53071 19.6281L28.8706 51.1004ZM60.0901 19.6404C59.8571 19.5972 59.6219 19.5658 59.3857 19.5464C54.6109 19.5464 49.836 19.5613 45.0512 19.5217C44.2184 19.5217 44.0627 19.9472 43.86 20.5954C41.9125 27.0406 39.9493 33.4792 37.9705 39.9112L34.5599 51.0584L34.728 51.14L60.0901 19.6404ZM31.819 3.43672L22.3163 17.2903H41.3317L31.819 3.43672ZM14.457 2.6352L20.433 16.2884L29.7924 2.6352H14.457ZM33.8457 2.6352C37.0264 7.28356 40.0589 11.6969 43.2051 16.2884C45.2465 11.6128 47.1817 7.17224 49.1564 2.64757L33.8457 2.6352ZM12.6356 3.74348L3.32806 17.3002H18.5572L12.6356 3.74348ZM45.0784 17.3126H60.3249L51.005 3.74348C48.9908 8.34979 47.0606 12.773 45.0784 17.3051V17.3126Z" fill="#C2202B"/>
</g>
<defs>
<clipPath id="clip0_212_26720">
<rect width="63" height="57" fill="white" transform="translate(0.320312 0.522461)"/>
</clipPath>
</defs>
</svg>
