<svg width="70" height="58" viewBox="0 0 70 58" fill="none" xmlns="http://www.w3.org/2000/svg">
<g clip-path="url(#clip0_212_26724)">
<path d="M20.8835 43.2135L28.7659 38.8697C25.6052 36.62 23.7753 33.426 23.9472 29.2711C23.9967 27.8325 24.3464 26.4203 24.9739 25.1254C25.6014 23.8305 26.4926 22.6816 27.5903 21.7527C29.6846 19.9251 32.407 18.9862 35.1806 19.135C37.9541 19.2838 40.5609 20.5086 42.4483 22.5499C46.901 27.3242 46.1746 33.1733 40.5075 38.903L48.3316 43.2135L48.6089 42.958C45.9389 40.7833 44.6996 38.0254 45.1709 34.6536C45.4482 32.5595 46.5128 30.8431 48.1181 29.4655C51.2982 26.7353 56.2694 26.8909 59.3691 29.8266C63.0787 33.3344 62.832 37.5754 58.5983 43.0302C63.9936 45.1549 67.5092 48.9515 68.8567 54.6507C69.4389 57.1031 69.0951 57.5225 66.5832 57.5225H2.55156C0.128372 57.5225 -0.240391 57.0892 0.316888 54.7257C1.58393 49.3737 4.72522 45.5743 9.78787 43.3996C10.0651 43.2774 10.3424 43.1496 10.6363 43.0191C6.35549 38.0198 6.06159 33.4843 9.76015 29.896C11.3188 28.3902 13.3935 27.539 15.5588 27.5168C17.724 27.4946 19.8157 28.3031 21.4048 29.7766C25.2004 33.3705 24.9786 37.9754 20.8835 43.2135ZM17.2432 55.0534H51.9359C50.7077 46.8907 43.0804 40.6333 34.5078 40.6583C26.0072 40.6833 18.3605 47.0185 17.2293 55.0534H17.2432ZM34.7906 21.4056C33.1274 21.3655 31.4896 21.8202 30.0843 22.7122C28.679 23.6042 27.5692 24.8935 26.8951 26.4172C26.2211 27.9409 26.013 29.6305 26.2973 31.2726C26.5815 32.9147 27.3453 34.4355 28.4921 35.6429C29.6389 36.8503 31.1172 37.69 32.7403 38.056C34.3633 38.422 36.0583 38.2978 37.6109 37.6991C39.1636 37.1004 40.5042 36.0541 41.4634 34.6924C42.4226 33.3308 42.9573 31.7148 43 30.0488C43.034 28.9385 42.8474 27.8325 42.4512 26.795C42.055 25.7575 41.4571 24.8092 40.692 24.0051C39.927 23.201 39.0101 22.5572 37.9947 22.1109C36.9792 21.6647 35.8854 21.4249 34.7767 21.4056H34.7906ZM53.5606 29.796C52.7519 29.7794 51.9481 29.9246 51.1961 30.223C50.4442 30.5215 49.7592 30.9672 49.1814 31.5342C48.6035 32.1011 48.1444 32.7779 47.8309 33.5248C47.5175 34.2717 47.3559 35.0738 47.3557 35.884C47.3414 36.7056 47.4895 37.5219 47.7914 38.2859C48.0934 39.0499 48.5432 39.7465 49.1151 40.3356C49.6869 40.9247 50.3694 41.3947 51.1234 41.7184C51.8773 42.0422 52.6877 42.2133 53.5079 42.222C56.896 42.2414 59.8071 39.3224 59.7739 35.9395C59.7463 34.3025 59.0784 32.7416 57.9138 31.5927C56.7493 30.4438 55.1812 29.7987 53.5468 29.796H53.5606ZM15.6379 29.796C14.0026 29.8024 12.4353 30.4524 11.274 31.6059C10.1128 32.7593 9.45055 34.3237 9.4302 35.9618C9.44974 37.6221 10.1184 39.2085 11.2925 40.3805C12.4666 41.5525 14.0525 42.2166 15.71 42.2303C16.5302 42.2195 17.3402 42.0462 18.0933 41.7204C18.8464 41.3947 19.5278 40.9229 20.0981 40.3322C20.6684 39.7416 21.1164 39.0437 21.4163 38.2789C21.7162 37.514 21.8621 36.6973 21.8456 35.8757C21.8447 35.0639 21.6818 34.2604 21.3664 33.5126C21.051 32.7648 20.5895 32.0878 20.009 31.5213C19.4286 30.9548 18.7408 30.5104 17.9864 30.2141C17.2319 29.9178 16.4259 29.7756 15.6157 29.796H15.6379ZM19.0093 45.0715C11.6039 42.3803 3.17816 48.8432 2.83159 55.2451H11.6649C14.5788 55.2451 14.4374 55.184 15.4411 52.5871C16.4447 49.9903 17.8005 47.5462 18.9954 45.0604L19.0093 45.0715ZM66.4612 55.234C65.4742 47.7823 56.6908 42.5441 49.826 45.2354C52.0912 48.0128 53.6715 51.1012 54.3508 54.6257C54.4209 54.7775 54.5275 54.9094 54.6611 55.0098C54.7946 55.1101 54.9509 55.1757 55.116 55.2006C58.8423 55.234 62.5769 55.2228 66.4473 55.2228L66.4612 55.234Z" fill="#C2202B"/>
<path d="M54.5679 6.11894C54.2435 5.08576 53.8332 4.32198 53.7916 3.53599C53.7001 1.77236 55.4191 0.267022 57.1824 0.561424C58.816 0.838219 60.4323 1.20915 62.0233 1.67237C63.6036 2.12786 64.3993 3.436 64.2191 5.07465C64.0611 6.49667 63.8559 7.91312 63.6646 9.33236C63.3874 11.4737 60.8061 13.3096 58.1196 10.9599C57.0106 11.7376 55.9015 12.5569 54.7565 13.3068C48.5654 17.3423 42.1026 17.7895 35.4596 14.5733C33.48 13.6151 31.689 12.2653 29.7316 11.2404C27.7742 10.2156 25.7419 9.01852 23.5988 8.50471C18.4446 7.26045 14.5936 9.67953 11.4578 13.5623C11.1113 13.99 10.8396 14.4816 10.5041 14.9232C9.445 16.3119 7.6983 16.673 6.34531 15.787C6.00091 15.5722 5.70381 15.2893 5.47216 14.9557C5.2405 14.6221 5.07914 14.2446 4.99793 13.8465C4.91672 13.4483 4.91737 13.0377 4.99982 12.6398C5.08227 12.2419 5.24481 11.8649 5.4775 11.532C10.4681 3.96647 19.0823 -0.716166 29.044 3.85261C30.8767 4.68582 32.5236 5.92453 34.3118 6.90772C36.2055 7.9409 38.0852 9.0463 40.087 9.82396C43.4445 11.1265 46.8104 10.7933 49.9655 9.07962C51.5986 8.18808 53.1179 7.05769 54.5679 6.11894ZM20.2939 5.91342C24.3085 5.91342 27.5246 7.05214 30.885 9.24626C32.5967 10.4146 34.3761 11.4802 36.2138 12.4375C42.2551 15.4148 48.1357 15.0621 53.7528 11.2765C55.0892 10.3739 56.3396 9.33236 57.6344 8.39361C58.7656 7.5604 59.3118 7.73259 59.8524 8.94908C59.9938 9.27126 60.3376 9.50456 60.5871 9.78229C60.8643 9.47123 61.3357 9.19905 61.4188 8.84632C61.6866 7.58396 61.8544 6.30239 61.9207 5.01355C61.9373 4.60805 61.5187 3.93315 61.1555 3.81094C59.9303 3.4165 58.6747 3.12389 57.4015 2.93607C57.0022 2.87497 56.542 3.21381 56.1095 3.3499C56.3867 3.69985 56.5974 4.18312 56.9579 4.37198C58.1722 5.04133 58.3441 5.83843 57.2351 6.68831C55.3359 8.14365 53.4534 9.66286 51.3906 10.8544C47.4287 13.154 43.1701 13.5706 38.9142 11.7987C36.6339 10.8245 34.4442 9.64974 32.3711 8.28807C29.0995 6.1856 25.717 4.4303 21.7634 4.33865C15.9189 4.19978 11.5965 7.13268 8.17795 11.6209C7.7288 12.2125 6.51443 13.0096 7.62344 13.7845C8.65205 14.5177 8.92928 13.1401 9.37289 12.5708C12.3949 8.68247 16.1074 6.05229 20.2939 5.91342Z" fill="#C2202B"/>
</g>
<defs>
<clipPath id="clip0_212_26724">
<rect width="69" height="57" fill="white" transform="translate(0.0898438 0.522461)"/>
</clipPath>
</defs>
</svg>
