<svg width="68" height="47" viewBox="0 0 68 47" fill="none" xmlns="http://www.w3.org/2000/svg">
<g clip-path="url(#clip0_212_26722)">
<path d="M36.5222 27.423L35.8166 26.7189C35.1067 26.0105 34.3897 25.2939 33.6676 24.5723C31.9972 22.9029 30.2998 21.2066 28.6016 19.522C27.62 18.5489 26.9069 18.2455 26.3412 18.2474C25.7737 18.2493 25.0556 18.5594 24.0668 19.5408L36.5222 27.423ZM36.5222 27.423L37.2285 26.7197M36.5222 27.423L37.2285 26.7197M37.2285 26.7197L56.4065 7.62537L58.1226 5.91672M37.2285 26.7197L58.1226 5.91672M58.1226 5.91672H55.7009M58.1226 5.91672H55.7009M55.7009 5.91672C54.8598 5.91672 54.0209 5.92088 53.1828 5.92504C51.5135 5.93333 49.8475 5.94161 48.1746 5.9169C47.588 5.90144 47.0271 5.67682 46.5939 5.28493C46.1598 4.89215 45.8829 4.35772 45.8129 3.77974C45.7428 3.2018 45.8839 2.61767 46.2112 2.13402C46.5365 1.6533 47.0244 1.30341 47.5874 1.14858C47.914 1.06944 48.2499 1.03448 48.5859 1.0447L48.6011 1.04517M55.7009 5.91672L48.6011 1.04517M48.6011 1.04517H48.6163M48.6011 1.04517H48.6163M48.6163 1.04517H48.6465H48.6767H48.7068H48.737H48.7671H48.7973H48.8274H48.8576H48.8877H48.9179H48.9481H48.9782H49.0084H49.0385H49.0687H49.0988H49.129H49.1591H49.1893H49.2195H49.2496H49.2798H49.3099H49.3401H49.3702H49.4004H49.4305H49.4607H49.4909H49.521H49.5512H49.5813H49.6115H49.6416H49.6718H49.7019H49.7321H49.7623H49.7924H49.8226H49.8527H49.8829H49.913H49.9432H49.9733H50.0035H50.0337H50.0638H50.094H50.1241H50.1543H50.1844H50.2146H50.2447H50.2749H50.3051H50.3352H50.3654H50.3955H50.4257H50.4558H50.486H50.5162H50.5463H50.5765H50.6066H50.6368H50.6669H50.6971H50.7272H50.7574H50.7876H50.8177H50.8479H50.878H50.9082H50.9383H50.9685H50.9987H51.0288H51.059H51.0891H51.1193H51.1494H51.1796H51.2098H51.2399H51.2701H51.3002H51.3304H51.3605H51.3907H51.4209H51.451H51.4812H51.5113H51.5415H51.5716H51.6018H51.632H51.6621H51.6923H51.7224H51.7526H51.7827H51.8129H51.8431H51.8732H51.9034H51.9335H51.9637H51.9938H52.024H52.0542H52.0843H52.1145H52.1446H52.1748H52.2049H52.2351H52.2653H52.2954H52.3256H52.3557H52.3859H52.416H52.4462H52.4764H52.5065H52.5367H52.5668H52.597H52.6272H52.6573H52.6875H52.7176H52.7478H52.7779H52.8081H52.8383H52.8684H52.8986H52.9287H52.9589H52.989H53.0192H53.0494H53.0795H53.1097H53.1398H53.17H53.2002H53.2303H53.2605H53.2906H53.3208H53.3509H53.3811H53.4113H53.4414H53.4716H53.5017H53.5319H53.5621H53.5922H53.6224H53.6525H53.6827H53.7128H53.743H53.7732H53.8033H53.8335H53.8636H53.8938H53.924H53.9541H53.9843H54.0144H54.0446H54.0748H54.1049H54.1351H54.1652H54.1954H54.2255H54.2557H54.2859H54.316H54.3462H54.3763H54.4065H54.4367H54.4668H54.497H54.5271H54.5573H54.5875H54.6176H54.6478H54.6779H54.7081H54.7383H54.7684H54.7986H54.8287H54.8589H54.8891H54.9192H54.9494H54.9795H55.0097H55.0399H55.07H55.1002H55.1303H55.1605H55.1907H55.2208H55.251H55.2811H55.3113H55.3414H55.3716H55.4018H55.4319H55.4621H55.4922H55.5224H55.5526H55.5827H55.6129H55.643H55.6732H55.7034H55.7335H55.7637H55.7938H55.824H55.8542H55.8843H55.9145H55.9446H55.9748H56.005H56.0351H56.0653H56.0955H56.1256H56.1558H56.1859H56.2161H56.2463H56.2764H56.3066H56.3367H56.3669H56.3971H56.4272H56.4574H56.4875H56.5177H56.5479H56.578H56.6082H56.6383H56.6685H56.6987H56.7288H56.759H56.7891H56.8193H56.8495H56.8796H56.9098H56.9399H56.9701H57.0003H57.0304H57.0606H57.0908H57.1209H57.1511H57.1812H57.2114H57.2416H57.2717H57.3019H57.332H57.3622H57.3924H57.4225H57.4527H57.4829H57.513H57.5432H57.5733H57.6035H57.6337H57.6638H57.694H57.7241H57.7543H57.7845H57.8146H57.8448H57.875H57.9051H57.9353H57.9654H57.9956H58.0258H58.0559H58.0861H58.1162H58.1464H58.1766H58.2067H58.2369H58.2671H58.2972H58.3274H58.3575H58.3877H58.4179H58.448H58.4782H58.5084H58.5385H58.5687H58.5988H58.629H58.6592H58.6893H58.7195H58.7496H58.7798H58.81H58.8401H58.8703H58.9005H58.9306H58.9608H58.991H59.0211H59.0513H59.0814H59.1116H59.1418H59.1719H59.2021H59.2323H59.2624H59.2926H59.3227H59.3529H59.3831H59.4132H59.4434H59.4736H59.5037H59.5339H59.564H59.5942H59.6244H59.6545H59.6847H59.7149H59.745H59.7752H59.8053H59.8355H59.8657H59.8958H59.926H59.9562H59.9863H60.0165H60.0466H60.0768H60.107H60.1371H60.1673H60.1975H60.2276H60.2578H60.288H60.3181H60.3483H60.3784H60.4086H60.4388H60.4689H60.4991H60.5293H60.5594H60.5896H60.6198H60.6499H60.6801H60.7102H60.7404H60.7706H60.8007H60.8309H60.8611H60.8912H60.9214H60.9516H60.9817H61.0119H61.0421H61.0722H61.1024H61.1325H61.1627H61.1929H61.223H61.2532H61.2834H61.3135H61.3437H61.3739H61.404H61.4342H61.4644H61.4945H61.5247H61.5548H61.585H61.6152H61.6453H61.6755H61.7057H61.7358H61.766H61.7962H61.8263H61.8565H61.8867H61.9168H61.947H61.9771H62.0073H62.0375H62.0676H62.0978H62.128H62.1581H62.1883H62.2185H62.2486H62.2788H62.309H62.3391H62.3693H62.3995H62.4296H62.4598H62.4899H62.5201H62.5503H62.5804H62.6106H62.6408H62.6709H62.7011H62.7313H62.7614H62.7916H62.8218H62.8519H62.8821H62.9123H62.9424H62.9726H63.0028H63.0329H63.0631H63.0933H63.1234H63.1536H63.1838H63.2139H63.2441H63.2743H63.3044H63.3346H63.3647H63.3949H63.4251H63.4552H63.4854H63.5156H63.5457H63.5759H63.6061H63.6362H63.6664H63.6966H63.7267H63.7569H63.7871H63.8172H63.8474H63.8776H63.9077H63.9379H63.9681H63.9982H64.0284H64.0586C65.106 1.04517 65.7806 1.33472 66.1945 1.74681C66.6082 2.15861 66.8986 2.82914 66.9011 3.86985C66.9126 8.9934 66.9126 14.1171 66.9011 19.2407V19.243M48.6163 1.04517L66.9011 19.243M66.9011 19.243C66.9011 21.0007 65.8224 22.0307 64.4555 22.0366C63.0835 22.0425 61.9955 21.0138 61.9955 19.2832V19.2695V19.2557V19.242V19.2282V19.2145V19.2008V19.187V19.1733V19.1595V19.1458V19.132V19.1183V19.1046V19.0908V19.0771V19.0633V19.0496V19.0359V19.0221V19.0084V18.9946V18.9809V18.9671V18.9534V18.9396V18.9259V18.9121V18.8984V18.8847V18.8709V18.8572V18.8434V18.8297V18.8159V18.8022V18.7884V18.7747V18.7609V18.7472V18.7334V18.7196V18.7059V18.6921V18.6784V18.6646V18.6509V18.6371V18.6234V18.6096V18.5958V18.5821V18.5683V18.5546V18.5408V18.527V18.5133V18.4995V18.4857V18.472V18.4582V18.4444V18.4307V18.4169V18.4031V18.3893V18.3756V18.3618V18.348V18.3342V18.3205V18.3067V18.2929V18.2791V18.2653V18.2515V18.2378V18.224V18.2102V18.1964V18.1826V18.1688V18.155V18.1412V18.1274V18.1136V18.0998V18.0861V18.0722V18.0584V18.0446V18.0308V18.017V18.0032V17.9894V17.9756V17.9618V17.948V17.9342V17.9204V17.9065V17.8927V17.8789V17.8651V17.8513V17.8374V17.8236V17.8098V17.7959V17.7821V17.7683V17.7544V17.7406V17.7268V17.7129V17.6991V17.6852V17.6714V17.6576V17.6437V17.6299V17.616V17.6021V17.5883V17.5744V17.5606V17.5467V17.5328V17.519V17.5051V17.4912V17.4774V17.4635V17.4496V17.4357V17.4219V17.408V17.3941V17.3802V17.3663V17.3524V17.3385V17.3246V17.3107V17.2968V17.2829V17.269V17.2551V17.2412V17.2273V17.2134V17.1995V17.1856V17.1716V17.1577V17.1438V17.1299V17.1159V17.102V17.0881V17.0741V17.0602V17.0462V17.0323V17.0184V17.0044V16.9905V16.9765V16.9625V16.9486V16.9346V16.9207V16.9067V16.8927V16.8787V16.8648V16.8508V16.8368V16.8228V16.8088V16.7948V16.7809V16.7669V16.7529V16.7389V16.7249V16.7109V16.6968V16.6828V16.6688V16.6548V16.6408V16.6268V16.6127V16.5987V16.5847V16.5706V16.5566V16.5426V16.5285V16.5145V16.5004V16.4864V16.4723V16.4582V16.4442V16.4301V16.416V16.402V16.3879V16.3738V16.3597V16.3456V16.3316V16.3175V16.3034V16.2893V16.2752V16.2611V16.2469V16.2328V16.2187V16.2046V16.1905V16.1764V16.1622V16.1481V16.134V16.1198V16.1057V16.0915V16.0774V16.0632V16.0491V16.0349V16.0207V16.0066V15.9924V15.9782V15.964V15.9499V15.9357V15.9215V15.9073V15.8931V15.8789V15.8647V15.8505V15.8363V15.822V15.8078V15.7936V15.7794V15.7651V15.7509V15.7367V15.7224V15.7082V15.6939V15.6797V15.6654V15.6511V15.6369V15.6226V15.6083V15.594V15.5798V15.5655V15.5512V15.5369V15.5226V15.5083V15.494V15.4796V15.4653V15.451V15.4367V15.4224V15.408V15.3937V15.3793V15.365V15.3506V15.3363V15.3219V15.3076V15.2932V15.2788V15.2644V15.2501V15.2357V15.2213V15.2069V15.1925V15.1781V15.1637V15.1492V15.1348V15.1204V15.106V15.0915V15.0771V15.0627V15.0482V15.0338V15.0193V15.0049V14.9904V14.9759V14.9614V14.947V14.9325V14.918V14.9035V14.889V14.8745V14.86V14.8455V14.831V14.8164V14.8019V14.7874V14.7728V14.7583V14.7437V14.7292V14.7146V14.7001V14.6855V14.6709V14.6564V14.6418V14.6272V14.6126V14.598V14.5834V14.5688V14.5542V14.5395V14.5249V14.5103V14.4957V14.481V14.4664V14.4517V14.4371V14.4224V14.4077V14.3931V14.3784V14.3637V14.349V14.3343V14.3196V14.3049V14.2902V14.2755V14.2608V14.2461V14.2313V14.2166V14.2018V14.1871V14.1723V14.1576V14.1428V14.128V14.1133V14.0985V14.0837V14.0689V14.0541V14.0393V14.0245V14.0097V13.9949V13.98V13.9652V13.9504V13.9355V13.9207V13.9058V13.8909V13.8761V13.8612V13.8463V13.8314V13.8165V13.8016V13.7867V13.7718V13.7569V13.742V13.7271V13.7121V13.6972V13.6822V13.6673V13.6523V13.6374V13.6224V13.6074V13.5924V13.5774V13.5624V13.5474V13.5324V13.5174V13.5024V13.4874V13.4723V13.4573V13.4422V13.4272V13.4121V13.3971V13.382V13.3669V13.3518V13.3367V13.3216V13.3065V13.2914V13.2763V13.2612V13.2461V13.2309V13.2158V13.2006V13.1855V13.1703V13.1551V13.14V13.1248V13.1096V13.0944V13.0792V13.064V13.0488V13.0335V13.0183V13.0031V12.9878V12.9726V12.9573V12.9421V12.9268V12.9115V12.8962V12.8809V12.8656V12.8503V12.835V12.8197V12.8044V12.789V12.7737V12.7584V12.743V12.7276V12.7123V12.6969V12.6815V12.6661V12.6507V12.6353V12.6199V12.6045V12.5891V12.5736V12.5582V12.5427V12.5273V12.5118V12.4964V12.4809V12.4654V12.4499V12.4344V12.4189V12.4034V12.3879V12.3723V12.3568V12.3413V12.3257V12.3102V12.2946V12.279V12.2634V12.2478V12.2323V12.2166V12.201V12.1854V12.1698V12.1542V12.1385V12.1229V12.1072V12.0915V12.0759V12.0602V12.0445V12.0288V12.0131V11.9974V11.9817V11.966V11.9502V11.9345V11.9187V11.903V9.62187M66.9011 19.243L61.9955 9.62187M61.9955 9.62187L60.3179 11.1675M61.9955 9.62187L60.3179 11.1675M60.3179 11.1675C60.1555 11.3172 60.0053 11.4539 59.8648 11.5819C59.5566 11.8625 59.2946 12.101 59.0517 12.3408L59.0488 12.3436M60.3179 11.1675L59.0488 12.3436M59.0488 12.3436C52.4453 18.9135 45.8448 25.4834 39.247 32.0533L39.2467 32.0536M59.0488 12.3436L39.2467 32.0536M39.2467 32.0536C38.0573 33.2391 37.3117 33.5844 36.7377 33.5822C36.16 33.5799 35.4059 33.2249 34.203 32.0273C32.8146 30.6452 31.429 29.2628 30.0252 27.8623C29.0587 26.898 28.0835 25.9251 27.0929 24.9378L26.4106 24.2578M39.2467 32.0536L26.4106 24.2578M26.4106 24.2578L25.7056 24.9141M26.4106 24.2578L25.7056 24.9141M25.7056 24.9141C25.5786 25.0323 25.4525 25.1483 25.328 25.2628C25.0377 25.5298 24.756 25.7888 24.492 26.0496L24.4894 26.0522M25.7056 24.9141L24.4894 26.0522M24.4894 26.0522C18.4674 32.0432 12.4435 38.0351 6.41773 44.028C5.53981 44.8967 4.58407 45.1366 3.83388 44.9941C3.09675 44.8541 2.40339 44.3183 2.05976 43.2954C1.88153 42.764 1.89191 42.3239 2.01377 41.9333C2.14028 41.5277 2.40802 41.1106 2.8422 40.6784L2.84399 40.6766M24.4894 26.0522L2.84399 40.6766M2.84399 40.6766C5.1179 38.4015 7.39567 36.1321 9.67728 33.8684L9.67876 33.8669M2.84399 40.6766L9.67876 33.8669M9.67876 33.8669C14.4728 29.0906 19.2688 24.3153 24.0667 19.541L9.67876 33.8669Z" fill="#C2202B" stroke="#F8F2F2" stroke-width="2"/>
</g>
<defs>
<clipPath id="clip0_212_26722">
<rect width="67" height="46" fill="white" transform="translate(0.910156 0.0224609)"/>
</clipPath>
</defs>
</svg>
