<svg width="54" height="58" viewBox="0 0 54 58" fill="none" xmlns="http://www.w3.org/2000/svg">
<g clip-path="url(#clip0_212_26727)">
<path d="M14.7821 35.9856C11.5052 37.0875 8.27956 38.1685 5.05855 39.2541C3.4527 39.7957 2.47986 40.97 2.44495 42.6183C2.35884 46.8206 2.42401 51.0229 2.44495 55.2253C2.44495 55.293 2.50548 55.3607 2.57762 55.5054H8.12594V50.7381C8.12594 50.2712 8.14223 49.8042 8.12594 49.3373C8.10267 48.6533 8.22603 47.9996 9.03826 47.9926C9.85049 47.9856 10.0204 48.5973 10.0157 49.3C10.0157 50.9739 10.0157 52.6478 10.0157 54.3194V55.5825H30.1237C30.4728 55.5825 30.8731 55.4844 31.1594 55.6221C31.5271 55.7949 32.0903 56.2221 32.0577 56.4299C31.9763 56.8175 31.5644 57.1957 31.1966 57.4455C30.9825 57.5926 30.5939 57.4875 30.2843 57.4875H2.35651C0.711099 57.4875 0.515625 57.2844 0.515625 55.5918C0.515625 51.5062 0.515625 47.4206 0.515625 43.335C0.515625 40.2579 1.91201 38.3015 4.8421 37.3093C7.80943 36.3054 10.7884 35.3389 13.7511 34.321C14.1002 34.2019 14.6494 33.8727 14.6471 33.6486C14.6331 32.7731 14.7542 31.4751 14.2515 31.0945C11.7636 29.2081 10.025 26.9179 9.29426 23.8572C9.23142 23.6004 8.78457 23.3412 8.47038 23.2595C6.32227 22.7132 5.25171 21.5015 5.30523 19.2906C5.36574 16.8509 5.24937 14.3365 5.79629 11.9926C7.45102 4.91164 13.9605 0.202688 21.1915 0.538874C24.6475 0.723461 27.935 2.09501 30.5022 4.4233C33.0694 6.7516 34.76 9.89491 35.2904 13.3256C35.6209 15.4969 35.5231 17.7614 35.4277 19.963C35.3625 21.6743 34.1826 22.8509 32.4464 23.2105C31.8064 23.3412 31.5155 23.5723 31.3339 24.2704C30.7082 26.9545 29.0688 29.2904 26.7608 30.7863C25.5971 31.5498 26.1696 32.5957 26.1324 33.5085C26.1184 33.791 26.7934 34.1809 27.2193 34.384C27.843 34.6829 28.5807 34.7646 29.1626 35.1171C29.5349 35.3506 29.9748 35.9342 29.9189 36.2844C29.8142 36.9685 29.1812 37.0805 28.5226 36.8587C27.6847 36.5716 26.8399 36.2961 26.009 36.0183C22.8997 40.8603 17.4585 40.886 14.7821 35.9856ZM31.6993 21.2424C32.9654 21.2214 33.5426 20.6937 33.5612 19.4937C33.5984 18.0159 33.638 16.5311 33.5426 15.0579C33.2004 9.59024 30.4705 5.64238 25.4784 3.5202C20.4235 1.37001 15.6851 2.28285 11.5308 5.88285C7.16243 9.66728 6.82265 14.7544 7.26252 20.0004C7.33001 20.8245 7.99329 21.4011 9.0592 21.2494C9.0592 19.8486 9.0848 18.4805 9.0592 17.1218C9.0336 16.1576 9.38037 15.6976 10.4044 15.6883C11.717 15.6883 13.0692 15.7093 14.3376 15.4198C16.895 14.8641 19.415 14.1475 21.8827 13.2743C22.7857 12.9451 23.5398 11.9459 24.1146 11.0867C24.4451 10.5918 24.5661 9.89375 25.2503 10.1202C25.618 10.2416 25.9974 10.865 26.0533 11.3015C26.3698 13.7482 28.0059 15.4875 30.4263 15.6766C31.3572 15.7513 31.7342 16.1435 31.7156 17.0587C31.6761 18.4618 31.6993 19.8486 31.6993 21.2424ZM10.9373 17.654C10.9373 18.9895 10.9234 20.2642 10.9373 21.5389C10.9663 23.8546 11.838 26.0798 13.3883 27.7959C14.9387 29.5119 17.0608 30.6003 19.3552 30.8564C24.1728 31.3513 28.6343 28.1996 29.5489 23.4346C29.912 21.5529 29.8026 19.5801 29.912 17.598C27.4543 17.1311 25.8019 15.777 24.6941 13.7552C21.2404 16.1786 18.4615 16.963 10.9373 17.654ZM24.1565 32.5257H16.5927C16.616 34.1949 16.111 36.1747 18.0915 37.1295C19.6206 37.865 21.3824 37.9326 22.8905 37.0011C24.6871 35.8945 24.1169 34.0175 24.1565 32.5257Z" fill="#C2202B"/>
<path d="M41.2508 32.7777C44.5078 32.8127 47.6201 34.1324 49.9145 36.4515C52.2089 38.7706 53.5009 41.9026 53.5112 45.1699C53.5112 51.9403 47.8302 57.5435 41.06 57.4828C34.2898 57.4221 28.8299 51.7769 28.8951 44.9108C28.944 38.2501 34.5761 32.7263 41.2508 32.7777ZM51.5818 45.1349C51.5818 39.3824 46.8271 34.6291 41.1252 34.6734C35.4232 34.7178 30.7639 39.4407 30.7593 45.1186C30.7593 50.8361 35.521 55.6034 41.2322 55.5824C46.8876 55.559 51.5888 50.8197 51.5818 45.1349Z" fill="#C2202B"/>
<path d="M39.2224 48.5107L45.2269 41.7286C45.5085 41.4087 45.7459 40.9838 46.1043 40.8111C46.4627 40.6383 46.9933 40.6733 47.4448 40.6196C47.4448 41.1052 47.645 41.7262 47.4192 42.0508C46.7769 42.9683 45.9623 43.7644 45.2153 44.6189C43.5675 46.4866 41.9128 48.3379 40.2744 50.208C39.6297 50.941 39.0176 50.9994 38.3171 50.2733C37.2651 49.1831 36.1876 48.1185 35.1124 47.0492C34.6259 46.5659 34.3001 46.0243 34.8796 45.4383C35.4591 44.8523 36.0084 45.2049 36.4762 45.6928C37.3629 46.5963 38.2542 47.5161 39.2224 48.5107Z" fill="#C2202B"/>
</g>
<defs>
<clipPath id="clip0_212_26727">
<rect width="53" height="57" fill="white" transform="translate(0.5 0.522461)"/>
</clipPath>
</defs>
</svg>
