<svg width="64" height="60" viewBox="0 0 64 60" fill="none" xmlns="http://www.w3.org/2000/svg">
<path d="M12.5617 53.3189C12.9443 51.0608 13.3845 48.4392 13.8385 45.8199C14.2473 43.4642 14.6652 41.1085 15.0924 38.7528C15.2583 37.8386 14.9149 37.1529 14.2557 36.5221C10.8862 33.2948 7.55112 30.0355 4.17924 26.8105C2.98307 25.6677 2.33544 24.3901 2.86784 22.7284C3.40024 21.0668 4.55493 20.2966 6.23742 20.0611C10.7502 19.4326 15.2537 18.7195 19.771 18.1252C21.1239 17.947 21.9698 17.4144 22.5713 16.1596C24.5096 12.1095 26.5793 8.12574 28.5499 4.09166C29.299 2.55573 30.3937 1.53636 32.15 1.52264C33.9684 1.50665 35.0816 2.53745 35.8376 4.1168C37.799 8.15546 39.871 12.1393 41.7954 16.1939C42.4016 17.4739 43.2866 17.9447 44.6188 18.123C49.2099 18.7424 53.7918 19.4532 58.3783 20.1183C59.9916 20.3468 61.0149 21.2405 61.4943 22.765C61.9737 24.2895 61.4943 25.526 60.3903 26.5911C57.0115 29.8641 53.6443 33.1462 50.2493 36.3941C49.4265 37.1826 49.1615 37.9803 49.3781 39.1368C50.224 43.6531 50.9638 48.19 51.729 52.7224C51.9964 54.3223 51.7474 55.7714 50.3162 56.7908C48.8849 57.8101 47.4076 57.6913 45.891 56.8845C41.807 54.7154 37.6906 52.599 33.6112 50.4185C32.6363 49.8974 31.7904 49.8837 30.804 50.4185C26.62 52.6477 22.4192 54.8442 18.2015 57.0079C15.4289 58.425 12.4879 56.681 12.5617 53.3189ZM14.4055 53.3852C14.3571 55.3874 15.8138 56.1851 17.5124 55.3028C21.6195 53.1704 25.7381 51.0562 29.8083 48.8551C31.4539 47.966 32.9382 47.9729 34.5792 48.8551C38.5826 51.0196 42.6459 53.0858 46.6631 55.2068C47.4836 55.6411 48.2765 55.9245 49.1431 55.36C50.0834 54.7451 50.0327 53.824 49.8783 52.9029C49.1154 48.3706 48.3802 43.8314 47.5343 39.3128C47.2209 37.6397 47.6426 36.3552 48.8503 35.1987C52.1946 31.9988 55.5065 28.767 58.8369 25.5557C59.4984 24.9181 60.0446 24.2552 59.745 23.2587C59.4293 22.2096 58.558 21.9399 57.6131 21.8051C53.1372 21.1674 48.666 20.5068 44.1832 19.9149C42.3186 19.668 41.0279 18.8635 40.1959 17.1104C38.2184 12.9529 36.1165 8.85485 34.0537 4.73849C33.4545 3.5454 32.6709 3.05171 31.7144 3.46312C31.1092 3.74968 30.6131 4.22166 30.2992 4.80934C28.1789 8.94018 26.1046 13.0924 24.0764 17.2659C23.3642 18.7172 22.3063 19.6109 20.6745 19.8189C19.3815 19.9857 18.0955 20.1869 16.8048 20.3743C13.2808 20.8908 9.7568 21.4142 6.2305 21.9239C5.2648 22.0633 4.57107 22.6393 4.59642 23.5376C4.66686 24.2743 4.99265 24.9641 5.51833 25.4895C8.83029 28.7739 12.2022 32.0034 15.5787 35.2238C16.655 36.2501 17.192 37.4431 16.9385 38.9105C16.625 40.8213 16.2609 42.7252 15.929 44.6245C15.3989 47.6346 14.8895 50.6311 14.4171 53.3852H14.4055Z" fill="#C2202B" stroke="#C2202B"/>
</svg>
